<?xml version="1.0" encoding="UTF-8"?>
<svg width="1920" height="1080" version="1.1" viewBox="0 0 508 285.75" xmlns="http://www.w3.org/2000/svg" xmlns:cc="http://creativecommons.org/ns#" xmlns:dc="http://purl.org/dc/elements/1.1/" xmlns:rdf="http://www.w3.org/1999/02/22-rdf-syntax-ns#" xmlns:xlink="http://www.w3.org/1999/xlink">
<defs>
<linearGradient id="b" x1="266.1" x2="265.34" y1="4.5357" y2="148.17" gradientTransform="translate(0 -.75595)" gradientUnits="userSpaceOnUse">
<stop stop-color="#a10ec6" offset="0"/>
<stop stop-color="#d55d92" offset=".42162"/>
<stop stop-color="#ffa146" offset="1"/>
</linearGradient>
<radialGradient id="a" cx="182.09" cy="85.804" r="11.703" gradientTransform="matrix(2.6908 0 0 2.2914 -153.1 -138.87)" gradientUnits="userSpaceOnUse">
<stop stop-color="#fdbe39" offset="0"/>
<stop stop-color="#fecf3e" offset=".42162"/>
<stop stop-color="#ffda3d" offset="1"/>
</radialGradient>
</defs>
<metadata>
<rdf:RDF>
<cc:Work rdf:about="">
<dc:format>image/svg+xml</dc:format>
<dc:type rdf:resource="http://purl.org/dc/dcmitype/StillImage"/>
<dc:title/>
</cc:Work>
</rdf:RDF>
</metadata>
<rect x="-1.1102e-16" width="509.51" height="288.02" fill="url(#b)" opacity=".996" stroke-width="52.917"/>
<path d="m336.22 30.934c-7.019 0.17172-13.924 3.2318-18.766 8.3164-4.8417 5.0846-7.5605 12.131-7.3888 19.15 0.17172 7.019 3.2318 13.924 8.3164 18.766s12.131 7.5605 19.15 7.3888 13.924-3.2318 18.766-8.3164c4.8417-5.0846 7.5605-12.131 7.3888-19.15-0.17172-7.019-3.2318-13.924-8.3164-18.766s-12.131-7.5605-19.15-7.3888z" fill="url(#a)"/>
<g>
<path d="m60.65 182.21c32.807 1.134 105.98 1.6379 179.15 2.1419-12.586-3.7798-25.171-7.5593-36.294-8.6934-11.123-1.134-20.781 0.37782-25.611 1.1338-4.8296 0.75598-4.8296 0.75598-4.8296 0.75598l-4.6829-0.37796c-4.6829-0.37796-14.049-1.1339-22.346-3.5277-8.2967-2.3938-15.523-6.4254-24.597-6.9295-9.0737-0.50411-19.993 2.5196-33.381 4.9135-13.388 2.3939-29.243 4.1577-40.951 5.9216-11.708 1.7639-19.268 3.5278 13.539 4.6617z" fill="#fad47e"/>
<path d="m-64.256 289.53c24.19-57.2 48.38-114.4 62.114-140.61 13.734-26.207 17.009-21.419 19.907-9.5758 2.8978 11.843 5.4175 30.742 13.355 34.899 7.9377 4.1577 21.292-6.4252 27.97-7.811 6.6777-1.3858 6.6777 6.4256 10.584 12.851 3.906 6.4256 11.717 11.465 18.521 12.599s12.599-1.6379 20.285-1.0078c7.6858 0.63007 17.261 4.6616 24.82 5.5435 7.5596 0.88186 13.103-1.3859 20.915-0.50385 7.8118 0.88205 17.891 4.9136 29.986 6.1735s26.206-0.25201 37.546-1.008c11.339-0.75594 19.907-0.75594 28.852-1.8899 8.9455-1.134 18.269-3.4018 26.584-7.8116 8.3155-4.4098 15.623-10.961 21.167-11.465 5.5438-0.50376 9.3235 5.0398 14.993 7.3075 5.6697 2.2677 13.229 1.2598 19.529-1.0081s11.339-5.7956 16.379-9.3234l15.875-7.5595c7.5595 4.2837 15.119 8.5676 23.435 3.9057 8.3154-4.6619 17.386-18.268 26.458-19.654 9.0718-1.3858 18.143 9.449 26.08 11.843s14.741-3.6538 22.048-13.859 15.119-24.568 29.104-30.49 34.143-3.402 44.727-6.5518c10.583-3.1498 11.591-11.969 14.615 16.254s8.0635 93.485 13.103 158.75" fill="#facd65"/>
<path d="m363.99 84.163c-2.6459 1.2599 163.66 2.0159 163.66 2.0159-3.2758-5.5436-6.5514-11.087-11.087-12.347-4.5358-1.2601-10.331 1.7637-14.489 3.5276-4.1577 1.7639-6.6775 2.2679-10.079-0.37787s-7.6855-8.4412-13.985-10.205c-6.2997-1.764-14.615 0.50377-24.064-5.2918-9.4495-5.7956-20.033-19.654-25.576-18.772-5.5438 0.88208-6.0477 16.504-13.733 24.82-7.6855 8.3155-22.552 9.3234-32.632 11.087s-15.371 4.2837-18.017 5.5436z" fill="#fad47e"/>
<path d="m-33.046 103.9c29.877 1.5119 95.111 2.0159 160.35 2.5199-11.22-5.7956-22.44-11.591-31.051-12.977-8.6111-1.386-14.613 1.6378-18.918 3.4017-4.3054 1.7639-6.9148 2.2679-8.2195 2.5199s-1.3048 0.252-5.4796-0.12596c-4.1748-0.37796-12.525-1.1339-18.787-7.3075-6.2627-6.1736-10.438-17.764-18.527-18.269-8.0893-0.50415-20.092 10.079-33.791 15.875-13.699 5.7958-29.094 6.8037-39.532 8.5676-10.438 1.7639-15.917 4.2837 13.96 5.7956z" fill="#fad47e"/>
<path d="m34.722 25.119c-3.0239 1.6126 163.29 1.9753 163.29 1.9753-3.2758-2.6603-6.5514-5.3204-11.087-5.9251-4.5358-0.60471-10.331 0.84633-14.489 1.6928-4.1577 0.84647-6.6775 1.0883-10.583 0.44864s-9.1973-2.1609-15.497-3.0074c-6.2997-0.84652-13.607-1.0181-22.049-3.2954-8.4416-2.2772-18.017-6.66-23.561-6.2367-5.5439 0.42324-7.0557 5.6525-14.867 7.501-7.8115 1.8485-21.922 0.31641-32.002 1.1628-10.08 0.84643-16.127 4.0715-19.151 5.684z" fill="#fad47e"/>
</g>
<g id="c">
<path d="m-64.256 289.53c0.75595-28.978 1.5119-57.956 27.215-73.453 25.703-15.497 76.35-17.513 117.55-15.119 41.2 2.3939 72.949 9.1972 113.9 8.0632 40.948-1.134 91.091-10.205 128.39-10.961 37.294-0.7559 61.736 6.8033 100.29 3.7794 38.554-3.0239 91.217-16.631 117.17-3.7789 25.955 12.852 25.199 52.16 24.443 91.47" fill="#faad80"/>
</g>
<g id="e">
<path d="m-64.256 289.53c2.0159-24.946 4.0317-49.892 12.473-63.374 8.4418-13.482 23.308-15.497 64.76-13.103 41.452 2.3939 109.49 9.1972 162.78 11.465 53.296 2.2679 91.848 1.2e-4 120.45-3.0238 28.601-3.0239 47.247-6.8035 66.776-7.6854s39.939 1.1339 72.572-0.75608c32.633-1.89 77.484-7.6854 101.04 4.4103 23.561 12.096 25.829 42.081 28.097 72.067" fill="#ff6767"/>
</g>
<g id="g">
<path d="m-64.256 289.53c100.79-14.111 201.59-28.222 279.07-42.333 77.487-14.111 131.66-28.222 186.09-21.166s109.11 35.277 163.79 63.5" fill="#ff3d68"/>
</g>
<g id="d">
<path d="m-64.256 289.53c6.0476-14.867 12.095-29.734 48.256-42.081 36.161-12.348 102.43-22.175 150.43-19.403 48.004 2.772 77.737 18.142 107.47 22.174 29.735 4.0317 59.468-3.2755 87.06-4.2834 27.593-1.0079 53.042 4.2836 80.131-0.25232 27.089-4.5359 55.814-18.898 79.879-24.694 24.065-5.7957 43.467-3.024 55.31 9.8276s16.127 35.782 20.411 58.712" fill="#a73489"/>
</g>
<g id="f">
<path d="m-64.256 289.53c43.593-18.647 87.186-37.293 136.07-40.317 48.886-3.0238 103.06 9.5749 161.14 17.135 58.083 7.5596 120.07 10.079 175 1.5117s102.81-28.222 127.76-26.458c24.947 1.7641 26.963 24.946 28.979 48.128" fill="#7d0e89"/>
</g>
</svg>
