<svg
   xmlns:dc="http://purl.org/dc/elements/1.1/"
   xmlns:cc="http://creativecommons.org/ns#"
   xmlns:rdf="http://www.w3.org/1999/02/22-rdf-syntax-ns#"
   xmlns:svg="http://www.w3.org/2000/svg"
   xmlns="http://www.w3.org/2000/svg"
   xmlns:xlink="http://www.w3.org/1999/xlink"
   width="1920"
   height="1080"
   viewBox="0 0 508 285.75"
   version="1.1"
   id="svg968">
  <defs
     id="defs962">
    <linearGradient
       id="linearGradient1071">
      <stop
         style="stop-color:#00ecff;stop-opacity:1"
         offset="0"
         id="stop1067" />
      <stop
         style="stop-color:#e2ffff;stop-opacity:1"
         offset="1"
         id="stop1069" />
    </linearGradient>
    <linearGradient
       id="linearGradient2106">
      <stop
         style="stop-color:#1827c1;stop-opacity:1"
         offset="0"
         id="stop2102" />
      <stop
         style="stop-color:#4d80e4;stop-opacity:1"
         offset="0.42162162"
         id="stop2110" />
      <stop
         style="stop-color:#46b3e6;stop-opacity:1"
         offset="1"
         id="stop2104" />
    </linearGradient>
    <linearGradient
       xlink:href="#linearGradient2106"
       id="linearGradient2108"
       x1="266.09525"
       y1="4.5357141"
       x2="265.33929"
       y2="148.16667"
       gradientUnits="userSpaceOnUse"
       gradientTransform="translate(0,-0.7559523)" />
    <linearGradient
       xlink:href="#linearGradient1071"
       id="linearGradient1043"
       x1="84.163826"
       y1="124.73215"
       x2="89.705221"
       y2="124.73215"
       gradientUnits="userSpaceOnUse" />
    <linearGradient
       xlink:href="#linearGradient1071"
       id="linearGradient1045"
       x1="58.461445"
       y1="147.41071"
       x2="64.002838"
       y2="147.41071"
       gradientUnits="userSpaceOnUse" />
    <linearGradient
       xlink:href="#linearGradient1071"
       id="linearGradient1047"
       x1="33.137039"
       y1="121.70833"
       x2="38.678436"
       y2="121.70833"
       gradientUnits="userSpaceOnUse" />
    <linearGradient
       xlink:href="#linearGradient1071"
       id="linearGradient1049"
       x1="88.699539"
       y1="43.845238"
       x2="94.240936"
       y2="43.845238"
       gradientUnits="userSpaceOnUse" />
    <linearGradient
       xlink:href="#linearGradient1071"
       id="linearGradient1051"
       x1="128.76501"
       y1="67.279762"
       x2="134.30641"
       y2="67.279762"
       gradientUnits="userSpaceOnUse" />
    <linearGradient
       xlink:href="#linearGradient1071"
       id="linearGradient1053"
       x1="152.95549"
       y1="39.309525"
       x2="158.49689"
       y2="39.309525"
       gradientUnits="userSpaceOnUse" />
    <linearGradient
       xlink:href="#linearGradient1071"
       id="linearGradient1055"
       x1="193.77693"
       y1="45.357143"
       x2="199.31831"
       y2="45.357143"
       gradientUnits="userSpaceOnUse" />
    <linearGradient
       xlink:href="#linearGradient1071"
       id="linearGradient1057"
       x1="403.9317"
       y1="100.54167"
       x2="409.47308"
       y2="100.54167"
       gradientUnits="userSpaceOnUse" />
    <linearGradient
       xlink:href="#linearGradient1071"
       id="linearGradient1059"
       x1="423.58646"
       y1="130.0238"
       x2="429.12784"
       y2="130.0238"
       gradientUnits="userSpaceOnUse" />
    <linearGradient
       xlink:href="#linearGradient1071"
       id="linearGradient1061"
       x1="440.97336"
       y1="102.05357"
       x2="446.51474"
       y2="102.05357"
       gradientUnits="userSpaceOnUse" />
    <linearGradient
       xlink:href="#linearGradient1071"
       id="linearGradient1063"
       x1="453.0686"
       y1="118.68453"
       x2="458.60999"
       y2="118.68453"
       gradientUnits="userSpaceOnUse" />
    <linearGradient
       xlink:href="#linearGradient1071"
       id="linearGradient1065"
       x1="471.96741"
       y1="104.32143"
       x2="477.50879"
       y2="104.32143"
       gradientUnits="userSpaceOnUse" />
  </defs>
  <metadata
     id="metadata965">
    <rdf:RDF>
      <cc:Work
         rdf:about="">
        <dc:format>image/svg+xml</dc:format>
        <dc:type
           rdf:resource="http://purl.org/dc/dcmitype/StillImage" />
        <dc:title></dc:title>
      </cc:Work>
    </rdf:RDF>
  </metadata>
  <g
     id="layer1">
    <rect
       style="opacity:0.996;fill:url(#linearGradient2108);fill-opacity:1;stroke-width:52.9167"
       id="rect2100"
       width="509.51187"
       height="288.01785"
       x="-1.110223e-16"
       y="0" />
    <path
       style="fill:none;stroke:url(#linearGradient1047);stroke-width:0.264583px;stroke-linecap:butt;stroke-linejoin:miter;stroke-opacity:1"
       d="m 38.553572,114.14881 -5.291667,15.11905"
       id="path895" />
    <path
       style="fill:none;stroke:url(#linearGradient1045);stroke-width:0.264583px;stroke-linecap:butt;stroke-linejoin:miter;stroke-opacity:1"
       d="m 63.877976,139.85119 -5.291667,15.11905"
       id="path895-7" />
    <path
       style="fill:none;stroke:url(#linearGradient1043);stroke-width:0.264583px;stroke-linecap:butt;stroke-linejoin:miter;stroke-opacity:1"
       d="M 89.580357,117.17262 84.28869,132.29167"
       id="path895-79" />
    <path
       style="fill:none;stroke:url(#linearGradient1049);stroke-width:0.264583px;stroke-linecap:butt;stroke-linejoin:miter;stroke-opacity:1"
       d="m 94.116072,36.285713 -5.291667,15.11905"
       id="path895-1" />
    <path
       style="fill:none;stroke:url(#linearGradient1051);stroke-width:0.264583px;stroke-linecap:butt;stroke-linejoin:miter;stroke-opacity:1"
       d="m 134.18155,59.720237 -5.29167,15.11905"
       id="path895-74" />
    <path
       style="fill:none;stroke:url(#linearGradient1053);stroke-width:0.264583px;stroke-linecap:butt;stroke-linejoin:miter;stroke-opacity:1"
       d="m 158.37202,31.749999 -5.29167,15.11905"
       id="path895-72" />
    <path
       style="fill:none;stroke:url(#linearGradient1055);stroke-width:0.264583px;stroke-linecap:butt;stroke-linejoin:miter;stroke-opacity:1"
       d="m 199.19345,37.797618 -5.29166,15.11905"
       id="path895-0" />
    <path
       style="fill:none;stroke:url(#linearGradient1057);stroke-width:0.264583px;stroke-linecap:butt;stroke-linejoin:miter;stroke-opacity:1"
       d="m 409.34821,92.982142 -5.29166,15.119048"
       id="path895-4" />
    <path
       style="fill:none;stroke:url(#linearGradient1059);stroke-width:0.264583px;stroke-linecap:butt;stroke-linejoin:miter;stroke-opacity:1"
       d="m 429.00297,122.46428 -5.29166,15.11905"
       id="path895-07" />
    <path
       style="fill:none;stroke:url(#linearGradient1061);stroke-width:0.264583px;stroke-linecap:butt;stroke-linejoin:miter;stroke-opacity:1"
       d="M 446.38988,94.494046 441.09822,109.6131"
       id="path895-5" />
    <path
       style="fill:none;stroke:url(#linearGradient1065);stroke-width:0.264583px;stroke-linecap:butt;stroke-linejoin:miter;stroke-opacity:1"
       d="m 477.38393,96.761904 -5.29167,15.119046"
       id="path895-06" />
    <path
       style="fill:none;stroke:url(#linearGradient1063);stroke-width:0.264583px;stroke-linecap:butt;stroke-linejoin:miter;stroke-opacity:1"
       d="m 458.48512,111.125 -5.29166,15.11905"
       id="path895-8" />
  </g>
  <g
     id="layer10" />
  <g
     id="layer12">
    <path
       style="fill:#caf0f8;fill-opacity:1;stroke:none;stroke-width:0.285155px;stroke-linecap:butt;stroke-linejoin:miter;stroke-opacity:1"
       d="m 67.287992,180.7986 c 32.806688,1.13395 105.979428,1.63791 179.152488,2.14188 -12.58576,-3.77976 -25.17093,-7.55934 -36.2935,-8.69336 -11.12257,-1.13403 -20.78108,0.37782 -25.6107,1.13381 -4.82962,0.75598 -4.82962,0.75598 -4.82962,0.75598 0,0 0,0 -4.68292,-0.37796 -4.68291,-0.37796 -14.04886,-1.1339 -22.34556,-3.52772 -8.29671,-2.39381 -15.52333,-6.42539 -24.59704,-6.92949 -9.07371,-0.50411 -19.99327,2.51958 -33.381297,4.91349 -13.388029,2.39391 -29.24301,4.15774 -40.950955,5.92165 -11.707944,1.76391 -19.267586,3.52776 13.539104,4.66172 z"
       id="path2240-0-7-8" />
  </g>
  <g
     id="layer13">
    <path
       style="fill:#90e0ef;fill-opacity:1;stroke:none;stroke-width:0.264583px;stroke-linecap:butt;stroke-linejoin:miter;stroke-opacity:1"
       d="m -64.255952,289.52976 c 24.190425,-57.20028 48.380408,-114.39951 62.1139519,-140.6063 13.7335441,-26.20679 17.0092081,-21.41928 19.9069981,-9.5758 2.897789,11.84348 5.417532,30.74155 13.355188,34.89921 7.937655,4.15766 21.292281,-6.42525 27.969977,-7.81105 6.677695,-1.38579 6.677695,6.42555 10.583681,12.85117 3.905986,6.42561 11.717182,11.46509 18.520792,12.59892 6.80361,1.13383 12.599014,-1.63788 20.284784,-1.00782 7.68577,0.63007 17.26079,4.66165 24.82037,5.54352 7.55958,0.88186 13.10301,-1.3859 20.91477,-0.50385 7.81175,0.88205 17.89073,4.91364 29.98616,6.17351 12.09543,1.25987 26.20626,-0.25201 37.54564,-1.00795 11.33939,-0.75594 19.90668,-0.75594 28.85217,-1.88991 8.9455,-1.13398 18.26872,-3.40179 26.58419,-7.81156 8.31546,-4.40977 15.62285,-10.96123 21.16664,-11.46498 5.54378,-0.50376 9.32347,5.03979 14.99319,7.30746 5.66973,2.26768 13.2291,1.25977 19.52862,-1.00809 6.29952,-2.26786 11.33915,-5.7956 16.37883,-9.32338 0,0 15.87499,-7.55952 15.87499,-7.55952 7.55953,4.28373 15.11938,8.56764 23.43477,3.90573 8.3154,-4.6619 17.38645,-18.26849 26.45821,-19.65432 9.07175,-1.38583 18.14281,9.44905 26.08035,11.8428 7.93754,2.39375 14.74097,-3.65375 22.04848,-13.85906 7.30751,-10.20531 15.11887,-24.56811 29.10444,-30.48988 13.98557,-5.92177 34.14348,-3.40203 44.72687,-6.5518 10.58338,-3.14976 11.59128,-11.96885 14.61517,16.25395 3.02389,28.2228 8.06348,93.48549 13.10312,158.749"
       id="path2231" />
    <path
       style="fill:#caf0f8;fill-opacity:1;stroke:none;stroke-width:0.264583px;stroke-linecap:butt;stroke-linejoin:miter;stroke-opacity:1"
       d="m 363.99113,84.162671 c -2.64589,1.259947 163.66363,2.015897 163.66363,2.015897 -3.27579,-5.54365 -6.5514,-11.086987 -11.08722,-12.347058 -4.53581,-1.260071 -10.33133,1.763679 -14.48904,3.527576 -4.15771,1.763898 -6.6775,2.267854 -10.07932,-0.377867 -3.40182,-2.645721 -7.68547,-8.441239 -13.98518,-10.205279 -6.2997,-1.76404 -14.61501,0.503771 -24.06449,-5.291833 -9.44949,-5.795603 -20.03262,-19.654453 -25.57639,-18.772367 -5.54377,0.882085 -6.04772,16.504471 -13.73326,24.819978 -7.68554,8.315506 -22.5523,9.323424 -32.63179,11.08732 -10.07949,1.763896 -15.37105,4.283686 -18.01694,5.543633 z"
       id="path2240" />
    <path
       style="fill:#caf0f8;fill-opacity:1;stroke:none;stroke-width:0.269242px;stroke-linecap:butt;stroke-linejoin:miter;stroke-opacity:1"
       d="m -33.045666,103.90033 c 29.8773545,1.51193 95.111305,2.0159 160.345536,2.51987 -11.22029,-5.79564 -22.44024,-11.591099 -31.051327,-12.977096 -8.611092,-1.385998 -14.612522,1.637753 -18.917954,3.401651 -4.305431,1.763898 -6.914752,2.267854 -8.219547,2.519858 -1.304795,0.252004 -1.304795,0.252004 -5.479634,-0.125957 C 59.456569,98.860694 51.106759,98.104759 44.844058,91.931169 38.581356,85.757579 34.406537,74.166783 26.317281,73.662633 18.228026,73.158483 6.2254055,83.74139 -7.4739384,89.537143 c -13.6993436,5.795753 -29.0943136,6.80367 -39.5319166,8.567565 -10.437603,1.763894 -15.917165,4.283682 13.960189,5.795622 z"
       id="path2240-0" />
    <path
       style="fill:#caf0f8;fill-opacity:1;stroke:none;stroke-width:0.183286px;stroke-linecap:butt;stroke-linejoin:miter;stroke-opacity:1"
       d="m 64.460603,26.581746 c -3.023874,1.612583 163.285647,1.975349 163.285647,1.975349 -3.27579,-2.660293 -6.55136,-5.320405 -11.08714,-5.92512 -4.53578,-0.604714 -10.33129,0.846327 -14.48904,1.6928 -4.15774,0.846474 -6.67753,1.088313 -10.58327,0.448641 -3.90574,-0.639672 -9.19728,-2.160931 -15.49702,-3.007445 -6.29974,-0.846515 -13.60712,-1.01813 -22.0487,-3.295366 -8.44158,-2.277237 -18.01671,-6.659986 -23.56055,-6.236742 -5.54385,0.423243 -7.05572,5.652463 -14.86721,7.501003 -7.81149,1.848539 -21.922127,0.316409 -32.001736,1.162837 -10.079609,0.846429 -16.127106,4.07146 -19.150981,5.684043 z"
       id="path2240-2" />
  </g>
  <g
     id="layer14">
    <path
       style="fill:#48cae4;fill-opacity:1;stroke:none;stroke-width:0.264583px;stroke-linecap:butt;stroke-linejoin:miter;stroke-opacity:1"
       d="m -64.255952,289.52976 c 0.755946,-28.97792 1.511883,-57.95552 27.214909,-73.45299 25.703026,-15.49746 76.349801,-17.51326 117.550058,-15.11932 41.200255,2.39394 72.948985,9.19724 113.897175,8.06323 40.94819,-1.134 91.09106,-10.20507 128.38548,-10.96097 37.29443,-0.7559 61.73591,6.80332 100.29022,3.77937 38.55431,-3.02394 91.21684,-16.63053 117.17162,-3.77893 25.95479,12.8516 25.19884,52.16034 24.44289,91.46961"
       id="path2226" />
  </g>
  <g
     id="layer15">
    <path
       style="fill:#00b4d8;fill-opacity:1;stroke:none;stroke-width:0.264583px;stroke-linecap:butt;stroke-linejoin:miter;stroke-opacity:1"
       d="m -64.255952,289.52976 c 2.015854,-24.94618 4.031687,-49.89211 12.473446,-63.37367 8.44176,-13.48155 23.308231,-15.49735 64.760466,-13.10342 41.452235,2.39392 109.48522,9.19722 162.78094,11.4651 53.29571,2.26788 91.84771,1.2e-4 120.44847,-3.02377 28.60075,-3.02388 47.24682,-6.80349 66.77603,-7.68542 19.52921,-0.88193 39.93908,1.13386 72.57165,-0.75608 32.63257,-1.88995 77.48393,-7.68535 101.04483,4.4103 23.56089,12.09564 25.82869,42.08111 28.09652,72.06696"
       id="path2221" />
  </g>
  <g
     id="layer16">
    <path
       style="fill:#0077b6;fill-opacity:1;stroke:none;stroke-width:0.264583px;stroke-linecap:butt;stroke-linejoin:miter;stroke-opacity:1"
       d="M -64.255952,289.52976 C 36.537909,275.41862 137.32955,261.30779 214.8162,247.19639 c 77.48666,-14.1114 131.66108,-28.22195 186.0908,-21.16615 54.42972,7.0558 109.10917,35.27746 163.7894,63.49952"
       id="path2216" />
  </g>
  <g
     id="layer17">
    <path
       style="fill:#023e8a;fill-opacity:1;stroke:none;stroke-width:0.264583px;stroke-linecap:butt;stroke-linejoin:miter;stroke-opacity:1"
       d="m -64.255952,289.52976 c 6.047563,-14.86693 12.095062,-29.7337 48.255655,-42.08126 36.160593,-12.34755 102.429774,-22.17454 150.433737,-19.40256 48.00396,2.77198 77.7369,18.1424 107.47156,22.17412 29.73466,4.03173 59.46759,-3.27552 87.06047,-4.28342 27.59287,-1.00791 53.04226,4.28355 80.13099,-0.25232 27.08873,-4.53586 55.81378,-18.89838 79.87885,-24.69408 24.06506,-5.79571 43.46706,-3.024 55.31042,9.82758 11.84336,12.85158 16.127,35.78168 20.41067,58.71194"
       id="path2199" />
  </g>
  <g
     id="layer18">
    <path
       style="fill:#182762;fill-opacity:1;stroke:none;stroke-width:0.264583px;stroke-linecap:butt;stroke-linejoin:miter;stroke-opacity:1"
       d="m -64.255952,289.52976 c 43.593385,-18.64689 87.185762,-37.29334 136.071754,-40.31715 48.885988,-3.02381 103.060418,9.57489 161.143898,17.13454 58.08348,7.55964 120.06911,10.07939 175.00267,1.51173 54.93356,-8.56766 102.80863,-28.22164 127.7555,-26.45754 24.94687,1.76409 26.96269,24.94617 28.97853,48.12842"
       id="path2170" />
  </g>
</svg>
